# Blender 4.1.1
# www.blender.org
mtllib Mountain.mtl
o mountain_Mesh1_Model
v 64.739975 18.021887 4.172759
v 77.107765 0.804986 2.884882
v 55.939964 19.451948 -18.828131
v 66.134315 13.721977 25.843424
v 51.614834 29.511793 22.298101
v 50.459217 37.456558 5.909376
v 40.157654 44.615952 19.500263
v 39.225872 45.646416 7.253154
v 26.283794 57.771652 17.236624
v 30.311203 51.055344 8.196085
v 21.965328 65.905052 15.871262
v 25.777134 58.683311 8.258206
v 18.977503 72.386925 14.853746
v 22.748348 65.133354 7.749473
v 16.161356 75.339073 13.804991
v 18.787500 70.881409 6.911839
v 13.716726 77.336060 12.760010
v 14.765366 75.481918 5.802223
v 6.969642 79.223755 3.671654
v 15.789838 68.298332 -0.729108
v 21.715820 64.918365 1.760953
v 23.427486 60.816090 0.514003
v 26.733418 55.494286 -1.635621
v 18.182274 55.494286 -6.369436
v 22.652895 49.545357 -12.623416
v 34.324108 49.430733 -6.197883
v 28.471939 39.978428 -20.495024
v 43.973381 39.978428 -11.913560
v 35.893478 19.392908 -30.570646
v 66.775627 0.804984 -25.507524
v 42.081394 0.804983 -39.178104
v 14.742944 22.580635 -38.434917
v 16.650259 -0.000005 -48.674908
v -7.140142 18.665852 -42.149620
v -9.675383 -0.000005 -53.103992
v -29.433907 18.204332 -41.799442
v -36.737846 -0.000005 -53.359547
v -47.478058 18.003309 -26.021288
v -58.714737 -0.000004 -33.660503
v -69.187996 -0.000001 -10.866065
v -56.157135 11.716919 -7.061051
v -34.801369 38.415310 -17.031424
v -41.375793 26.435230 -2.722594
v -24.772635 47.987274 -9.966694
v -29.740843 41.635296 0.692910
v -16.721367 54.689323 -4.458821
v -20.347937 54.689323 3.434419
v -12.321264 62.027138 -1.992795
v -14.808015 62.556622 4.980050
v -9.107924 67.856247 -0.821981
v -10.749933 68.541977 6.079844
v -0.909883 75.191757 1.584531
v -4.912466 77.637306 8.438376
v 5.736214 79.985802 10.628694
v 4.456923 79.195961 17.906069
v -7.509230 72.124413 14.351742
v -14.881515 62.430916 12.510798
v -19.710545 54.689327 12.474957
v -28.839048 44.087330 13.069164
v -15.089647 54.689327 22.587336
v -23.248735 41.739986 31.242685
v -11.121725 47.122272 35.033859
v -16.520153 30.418707 41.588905
v -33.385460 26.435236 40.733685
v -24.593687 13.271031 56.723343
v -44.454563 11.493522 43.292103
v -54.002705 0.000004 44.444508
v -54.679688 14.103131 14.775142
v -67.347168 0.000002 15.241595
v -40.220371 31.426128 13.666127
v -31.730049 0.000007 71.834068
v -2.841490 13.174508 61.179531
v -4.737476 0.000007 72.485046
v 18.389387 14.419446 68.588608
v 20.854593 0.000009 81.069992
v 49.510773 1.210112 72.296524
v 41.751526 9.916365 61.548824
v 33.135559 22.682739 49.481495
v 57.562454 12.542115 44.832676
v 68.475342 1.047583 51.787025
v 78.948402 0.804989 28.992567
v 45.040405 27.482836 36.606857
v 35.183567 39.469254 30.152475
v 27.322008 49.778210 25.129766
v 23.192678 58.391716 22.898308
v 20.251894 64.624176 21.891516
v 16.341343 70.686295 20.769144
v 12.286750 75.446495 19.843353
v 8.386644 78.022072 18.922348
v 7.036498 68.824661 26.458832
v -0.720506 68.670868 24.371824
v -7.596137 66.254547 21.388033
v -7.090417 65.209396 30.447718
v -11.878521 60.898750 20.469719
v 0.772134 49.391422 39.487137
v -0.556162 30.418707 47.550335
v 15.147115 32.907749 54.988934
v 26.197556 42.448322 39.838768
v 20.755028 61.518669 32.231983
v 17.253546 65.013840 27.039146
v 14.251277 66.927315 27.266386
v 10.831882 64.208588 35.270054
v 1.715843 65.071869 33.736259
v 12.651546 49.636368 44.033352
v 8.165654 76.597343 -2.920328
v 8.653733 70.377403 -5.670223
v 16.380758 62.600975 -3.085447
v 9.376013 62.823166 -9.658021
v 10.760438 56.802666 -17.095795
v 0.259976 54.689320 -11.191745
v -1.559029 48.777115 -19.138031
v -14.328619 48.253242 -19.288727
v -4.017647 39.295006 -29.236982
v 12.507896 47.061932 -26.456644
v -21.005713 38.415306 -29.397186
v -9.111177 54.689320 -11.280196
v 0.739802 61.946346 -7.293923
v -6.914684 60.180912 -7.650050
v -5.851403 64.343666 -5.656455
v 0.454054 67.888504 -4.855457
vn -0.7916 0.5416 -0.2830
vn -0.7624 0.5678 -0.3104
vn -0.7719 0.5593 -0.3022
vn 0.3276 0.7403 -0.5870
vn 0.3140 0.7649 -0.5624
vn 0.4595 0.5823 -0.6706
vn 0.3537 0.7118 -0.6069
vn 0.7592 0.6253 0.1807
vn 0.7601 0.6167 0.2048
vn 0.7501 0.6143 0.2449
vn 0.6873 0.7263 0.0088
vn 0.5843 0.7870 -0.1984
vn 0.6985 0.7046 -0.1247
vn 0.7973 0.5904 -0.1258
vn 0.8822 0.4708 0.0115
vn 0.8816 0.4665 -0.0716
vn 0.9040 0.4245 0.0499
vn 0.9030 0.4274 0.0429
vn 0.7436 0.6234 -0.2418
vn 0.7894 0.5962 -0.1463
vn 0.8258 0.5619 -0.0488
vn 0.6703 0.7130 -0.2057
vn 0.7619 0.6277 -0.1595
vn 0.7585 0.6490 -0.0586
vn 0.7619 0.6277 -0.1596
vn 0.4710 0.6293 -0.6182
vn 0.5751 0.5937 -0.5628
vn 0.7569 0.5985 -0.2625
vn 0.8235 0.5439 -0.1615
vn 0.6114 0.6652 0.4286
vn 0.6190 0.6603 0.4252
vn 0.6845 0.6030 0.4096
vn 0.7457 0.5355 0.3964
vn 0.8718 0.4733 -0.1263
vn 0.8371 0.5439 -0.0591
vn -0.0272 0.7286 -0.6843
vn -0.0187 0.7619 -0.6474
vn -0.0182 0.7620 -0.6473
vn -0.0265 0.7291 -0.6839
vn -0.3606 0.3212 0.8757
vn -0.5686 0.3245 0.7559
vn -0.5180 0.4529 0.7257
vn -0.3435 0.3708 0.8628
vn 0.4266 0.5053 -0.7501
vn 0.4067 0.4854 -0.7739
vn 0.3972 0.6355 -0.6622
vn 0.4005 0.5863 -0.7042
vn -0.0065 0.5224 -0.8527
vn -0.0136 0.5268 -0.8499
vn 0.0414 0.4922 -0.8695
vn -0.0084 0.5210 -0.8535
vn -0.3484 0.4109 0.8425
vn -0.3903 0.4319 0.8131
vn 0.4249 0.7861 0.4489
vn 0.4142 0.7615 0.4985
vn 0.3533 0.7573 0.5492
vn 0.3490 0.7715 0.5319
vn -0.7585 0.6464 -0.0827
vn -0.7322 0.6763 -0.0801
vn -0.7333 0.6713 -0.1081
vn -0.7997 0.5741 -0.1757
vn -0.7326 0.6486 0.2064
vn -0.7327 0.6485 0.2064
vn -0.7200 0.6581 0.2202
vn -0.7451 0.6386 0.1924
vn -0.6805 0.7238 0.1141
vn -0.7422 0.5844 -0.3280
vn -0.7392 0.5868 -0.3304
vn -0.7299 0.5956 -0.3354
vn -0.8088 0.5881 0.0068
vn -0.8183 0.5748 0.0031
vn -0.8057 0.5568 0.2019
vn -0.8302 0.5569 0.0260
vn -0.2669 0.6261 0.7327
vn -0.3074 0.5992 0.7392
vn -0.3110 0.5951 0.7410
vn -0.2667 0.6257 0.7330
vn -0.5256 0.6729 0.5205
vn -0.5131 0.6712 0.5350
vn -0.5442 0.6618 0.5156
vn -0.7801 0.5568 0.2853
vn -0.8162 0.5546 0.1619
vn -0.8264 0.5382 0.1652
vn -0.2277 0.9715 0.0654
vn 0.4885 0.8135 0.3156
vn -0.8492 0.5168 0.1089
vn -0.0122 0.7934 -0.6086
vn -0.0110 0.7923 -0.6101
vn -0.7178 0.6224 0.3122
vn -0.7201 0.6234 0.3046
vn -0.7117 0.6340 0.3025
vn -0.7210 0.6123 0.3245
vn 0.7672 0.6414 0.0058
vn -0.3867 0.8216 -0.4189
vn -0.3968 0.8086 -0.4343
vn -0.4113 0.7929 -0.4496
vn -0.4657 0.5762 0.6717
vn -0.4759 0.6760 0.5627
vn -0.7793 0.5046 0.3716
vn -0.7699 0.5161 0.3753
vn -0.7797 0.5023 0.3738
vn -0.1545 0.6054 0.7808
vn -0.5358 0.5931 -0.6010
vn -0.5353 0.5935 -0.6009
vn -0.5353 0.5936 -0.6009
vn -0.5249 0.5702 -0.6319
vn -0.5205 0.5732 -0.6329
vn -0.5124 0.5788 -0.6344
vn 0.2218 0.4666 -0.8562
vn 0.0841 0.7157 -0.6933
vn 0.7166 0.6875 -0.1177
vn 0.7843 0.5688 -0.2475
vn 0.7807 0.5696 -0.2568
vn 0.7347 0.6568 -0.1698
vn -0.3295 0.4181 0.8465
vn -0.3219 0.4191 0.8489
vn -0.3796 0.4991 0.7790
vn -0.3810 0.4951 0.7809
vn -0.0222 0.5313 -0.8469
vn -0.0783 0.5878 -0.8052
vn -0.7035 0.6430 0.3027
vn -0.7031 0.6439 0.3016
vn 0.7785 0.5646 -0.2741
vn 0.7779 0.5666 -0.2718
vn -0.5348 0.5942 -0.6008
vn -0.5346 0.5940 -0.6011
vn -0.4375 0.8220 -0.3647
vn -0.4395 0.8180 -0.3710
vn -0.6318 0.6584 -0.4091
vn 0.7175 0.5358 0.4452
vn 0.6635 0.5676 0.4875
vn 0.5098 0.6371 0.5781
vn 0.8089 0.4657 0.3589
vn -0.3556 0.4915 -0.7950
vn -0.3205 0.4593 -0.8284
vn -0.2502 0.4335 -0.8657
vn 0.5565 0.4432 -0.7027
vn 0.4641 0.4848 -0.7413
vn 0.7771 0.4910 0.3937
vn 0.7703 0.4946 0.4024
vn 0.8957 0.4138 -0.1628
vn 0.8955 0.4141 -0.1630
vn -0.4801 0.6765 0.5584
vn -0.8399 0.3016 0.4511
vn 0.0880 0.6567 -0.7490
vn -0.2326 0.4657 -0.8538
vn 0.5148 0.5320 0.6723
vn 0.5149 0.5151 0.6853
vn 0.5002 0.5004 0.7067
vn 0.5102 0.5357 0.6728
vn -0.7063 0.6330 0.3170
vn -0.6985 0.6403 0.3194
vn -0.1924 0.6764 0.7110
vn -0.3011 0.6884 0.6599
vn -0.1237 0.7106 0.6926
vn -0.1911 0.6576 0.7288
vn -0.4246 0.7769 -0.4650
vn -0.4260 0.7761 -0.4649
vn 0.5176 0.5640 0.6434
vn 0.4062 0.7210 0.5614
vn 0.3737 0.7405 0.5586
vn 0.7254 0.4235 0.5427
vn 0.8203 0.5512 -0.1527
vn 0.8902 0.4481 0.0824
vn 0.2876 0.6660 0.6883
vn 0.7614 0.6303 0.1518
vn -0.2284 0.7064 0.6699
vn -0.5232 0.6322 0.5715
vn -0.5215 0.6852 0.5084
vn 0.2143 0.6001 0.7707
vn -0.0712 0.7170 0.6934
vn 0.3753 0.5117 0.7729
vn 0.4481 0.4945 0.7448
vn 0.4233 0.4766 0.7705
vn -0.3311 0.8544 -0.4005
vn 0.7469 0.6532 -0.1247
vn 0.5996 0.3625 -0.7135
vn 0.5885 0.3801 -0.7135
vn 0.6116 0.3779 -0.6951
vn 0.3708 0.4742 -0.7985
vn 0.4268 0.5049 -0.7503
vn 0.6170 0.4190 -0.6661
vn 0.6107 0.6398 0.4665
vn 0.6135 0.6706 0.4170
vn 0.6255 0.6716 0.3972
vn 0.6211 0.6685 0.4091
vn -0.0308 0.5130 -0.8578
vn -0.2458 0.9195 -0.3068
vn 0.7306 0.6253 0.2744
vn 0.5711 0.7384 0.3585
vn 0.5772 0.7646 0.2867
vn 0.7799 0.6089 0.1449
vn -0.2419 0.4140 0.8775
vn -0.7054 0.6386 0.3076
vn 0.6252 0.7100 0.3241
vn 0.6550 0.6875 0.3136
vn 0.6196 0.7259 0.2987
vn 0.6063 0.7469 0.2731
vn 0.2690 0.9530 0.1397
vn -0.0607 0.4437 -0.8941
vn -0.0768 0.4096 -0.9090
vn -0.5563 0.4702 -0.6851
vn -0.5565 0.4589 -0.6926
vn -0.5565 0.4587 -0.6927
vn 0.1126 0.4528 -0.8845
vn 0.1089 0.4488 -0.8870
vn -0.5566 0.4474 -0.7000
vn -0.3578 0.6490 -0.6714
vn 0.1386 0.7500 -0.6467
vn 0.3325 0.4459 -0.8310
vn 0.5131 0.4033 -0.7577
vn 0.3979 0.9113 -0.1061
vn 0.6453 0.6108 0.4587
vn 0.6010 0.7992 -0.0044
vn 0.5908 0.8065 0.0229
vn -0.7153 0.6901 -0.1096
vn -0.7159 0.6879 -0.1190
vn -0.7096 0.7045 0.0141
vn -0.7077 0.7064 0.0119
vn -0.3189 0.7174 -0.6194
vn -0.7814 0.6220 -0.0502
vn -0.7753 0.6291 -0.0553
vn -0.7933 0.6088 -0.0070
vn -0.1817 0.6024 0.7773
vn -0.2000 0.6996 0.6860
vn -0.5152 0.5008 0.6956
vn -0.7103 0.6668 -0.2254
vn 0.6037 0.7971 0.0076
vn 0.2574 0.7498 0.6096
vn 0.5083 0.6582 0.5554
vn 0.2384 0.7387 0.6305
vn -0.5857 0.8008 0.1251
vn -0.5526 0.8039 0.2200
vn -0.2159 0.9293 0.2997
vn -0.8165 0.5573 0.1511
vn -0.8445 0.5011 0.1888
vn 0.6177 0.7005 0.3576
vn 0.2980 0.8387 0.4559
vn 0.2612 0.8669 0.4246
vn 0.5854 0.8076 0.0720
vn 0.5877 0.8058 0.0729
vn 0.6699 0.7147 -0.2010
vn 0.6170 0.7032 -0.3533
vn 0.0190 0.9088 0.4169
vn -0.0514 0.9147 0.4007
vn -0.2903 0.6706 -0.6827
vn -0.3025 0.6338 -0.7119
vn -0.3024 0.6339 -0.7118
vn -0.3143 0.5942 -0.7404
vt 0.746117 2.033500
vt 0.635129 2.013520
vt 0.639717 1.848980
vt 0.758022 1.859120
vt 0.027278 1.408600
vt 0.269500 1.299140
vt 0.307859 1.497010
vt 0.130050 1.609490
vt 1.094710 0.836552
vt 1.266960 1.115650
vt 0.959408 1.267720
vt 1.033770 1.210880
vt 1.178960 1.336970
vt 0.838352 1.598800
vt 0.069961 1.309080
vt 0.033121 1.542920
vt -0.046567 1.120770
vt 0.156240 1.734930
vt 0.168635 1.501830
vt 0.368048 1.991890
vt 0.490575 1.793200
vt 0.379879 2.170220
vt 0.494499 1.970820
vt 0.327213 2.043330
vt 0.433366 1.839300
vt 0.349030 2.135970
vt 0.451802 2.006400
vt 0.341397 2.021110
vt 0.443988 1.891400
vt 0.363080 2.089480
vt 0.468392 2.032570
vt 0.342426 2.096980
vt 0.171839 1.968810
vt 0.505556 2.018550
vt 0.359326 2.024500
vt 0.309948 2.232080
vt 0.247497 1.926840
vt 0.235578 2.109620
vt 0.528306 1.839960
vt 0.650059 1.957330
vt 0.530858 1.952890
vt 0.575867 1.813180
vt 0.676388 1.865870
vt 0.354037 1.822590
vt 0.336780 1.606750
vt 0.480758 1.880960
vt 0.500614 1.726460
vt 0.974092 1.104370
vt 0.850589 1.406070
vt 0.606673 1.422230
vt 0.649568 1.129570
vt 0.673051 2.053570
vt 0.497495 2.064180
vt 0.424633 1.587670
vt 0.664635 1.635750
vt -0.271805 0.739987
vt 0.152245 0.735393
vt 0.217867 1.307160
vt -0.106824 1.307160
vt 1.268120 0.233355
vt 1.132390 0.740661
vt 0.706290 0.753389
vt 0.750897 0.238703
vt 0.841697 1.068780
vt 0.819380 1.578030
vt 0.582512 1.516340
vt 0.523001 1.062220
vt 1.031480 -0.332885
vt 0.712322 -1.385920
vt 0.253214 -1.510660
vt 0.549650 -0.327644
vt 0.784944 0.598911
vt -0.096372 -1.275530
vt 0.298783 -1.180530
vt 1.019900 0.761689
vt 0.433493 0.484830
vt 0.760188 0.301329
vt 0.504353 1.080660
vt 0.773781 0.781684
vt 0.131406 1.084620
vt 0.304272 0.721169
vt 0.293818 1.375010
vt 0.337564 1.241230
vt 0.479896 1.033170
vt 0.452246 1.460760
vt 0.581610 1.406000
vt 0.637044 1.643630
vt 0.777420 1.648870
vt 0.778049 1.870410
vt 0.661477 1.874010
vt 1.019550 -0.057780
vt 0.971200 0.364026
vt 0.548810 0.385129
vt 0.515997 0.000000
vt 0.603719 2.064620
vt 0.800692 1.963790
vt 0.819474 2.271070
vt 0.586481 2.241010
vt 0.753810 1.793330
vt 0.917444 1.939580
vt 0.793993 2.080800
vt 0.661215 1.974560
vt 0.676344 1.034920
vt 0.874327 1.161390
vt 0.776328 1.225470
vt 0.550188 1.067250
vt 0.415971 1.109460
vt 0.481749 1.717900
vt 0.600973 1.714120
vt 0.706299 2.234810
vt 0.622954 1.376770
vt 0.459184 1.449300
vt 0.412024 1.254950
vt 0.630821 1.145940
vt 0.637462 1.801400
vt 0.774881 0.279550
vt 0.839725 0.719105
vt 0.408531 0.872561
vt 0.293457 0.356319
vt -0.424052 -0.021051
vt -0.021867 -0.074068
vt 0.050384 0.427583
vt -0.300899 0.379082
vt 0.877167 1.140550
vt 0.802692 1.376770
vt 0.193613 1.434710
vt 0.262949 1.823220
vt 0.344819 1.373960
vt 0.747418 1.651940
vt 0.749027 1.827810
vt 0.613419 1.868700
vt 0.567686 1.651940
vt 0.723490 1.941940
vt 0.748042 2.208250
vt 1.192910 0.047208
vt 1.087290 0.565183
vt 0.664699 0.570978
vt 0.673857 0.045911
vt 0.916845 1.790760
vt 0.826580 1.982650
vt 0.705045 1.905950
vt 0.741552 1.751040
vt 0.090058 -0.516834
vt -0.007463 0.260474
vt 0.206050 0.955243
vt 0.149215 0.382876
vt 0.540619 0.439816
vt 0.506501 1.029510
vt 0.452866 1.454950
vt 0.223883 1.519060
vt 0.084001 1.028900
vt 0.409293 0.987489
vt 0.645676 1.153120
vt 0.336315 1.254340
vt 0.253802 0.684511
vt 0.506909 1.198590
vt 0.413767 0.814902
vt 0.845383 0.662637
vt 0.805615 1.127460
vt 0.459924 -0.067989
vt 0.443708 0.469250
vt 0.971504 1.153930
vt -0.020128 1.028580
vt 0.014892 0.736363
vt 0.783488 1.363100
vt 0.731443 1.597450
vt 0.424930 2.442400
vt 0.411927 2.275330
vt 0.569844 2.212300
vt 0.614508 2.423770
vt 0.318970 1.691490
vt 0.172791 1.646430
vt 0.128749 1.497010
vt 0.056720 1.765970
vt -0.038461 1.622340
vt 0.590022 2.046440
vt 0.485196 2.002940
vt 0.511349 1.829520
vt 0.607987 1.868620
vt 0.468934 1.993620
vt 0.374151 1.999120
vt 0.667803 1.888330
vt 0.730418 1.816020
vt 0.786292 1.968310
vt 0.595647 1.859590
vt 0.683354 0.413387
vt 1.106190 0.421782
vt 1.018860 0.943177
vt 0.692527 0.910952
vt 0.391534 2.069900
vt 0.561326 2.053310
vt 0.697094 0.657753
vt 0.996687 0.789379
vt 0.667994 1.208580
vt 0.362497 0.948046
vt 0.270277 0.313332
vt 0.157596 -0.111611
vt 0.676634 -0.111611
vt 0.750815 0.231195
vt 0.374394 0.930992
vt 0.261932 0.416172
vt 0.955784 0.918529
vt 0.868948 1.239720
vt 0.622701 1.248540
vt 0.629981 0.922625
vt 0.299494 0.423155
vt 1.086730 0.683837
vt 0.185871 -1.026080
vt 1.240280 0.235524
vt -0.200469 1.359360
vt -0.020867 1.198960
vt 0.009517 1.835500
vt 0.088555 1.496570
vt 0.145485 1.729790
vt 0.509560 1.846840
vt 0.606060 1.956200
vt 0.557440 2.094700
vt 0.395589 1.939670
vt -0.084391 0.802902
vt -0.199339 0.317585
vt 0.939634 -0.222426
vt 0.002435 -0.763779
vt -0.507278 -0.821840
vt 0.338829 -0.222426
vt 0.824569 2.141980
vt 0.128777 0.419430
vt 0.000000 0.000000
vt 0.752266 0.746322
vt 0.404217 0.092010
vt 0.331745 0.854792
vt 0.577447 1.879860
vt 0.560161 1.476110
vt 0.771155 1.805330
vt 0.826198 1.287860
vt 0.709508 1.254090
vt 0.429786 1.919240
vt 0.612714 1.866090
vt 0.280176 1.843750
vt 0.116791 0.218704
vt 0.166671 0.731614
vt -0.257401 0.733252
vt -0.400438 0.215150
vt 0.370897 1.791290
vt 0.534994 1.992150
vt 0.366854 1.986060
vt -0.103927 1.116900
vt 0.220762 1.117880
vt 0.271510 1.412130
vt -0.018135 -0.220796
vt 0.021318 -0.664277
vt 0.559916 1.955750
vt 0.562551 1.757360
vt 0.739942 1.936580
vt 0.590571 2.091470
vt 0.485795 0.135772
vt 0.594292 0.013671
vt 0.528810 1.658100
vt 0.902353 1.630000
vt 0.848822 2.030570
vt 0.137003 0.471033
vt -0.074830 0.471033
vt -0.071780 1.589150
vt 0.931923 0.078440
vt 0.596075 0.041124
vt 0.617776 -0.338394
vt 1.023410 -0.330096
vt 0.352420 2.042230
vt 0.520638 2.045480
vt 0.497079 2.250580
vt 0.341276 2.194880
vt 0.499975 1.230290
vt 0.390750 1.188100
vt 0.687940 2.019090
vt 0.631603 1.951580
vt 0.765904 2.002730
vt 0.631236 2.066000
vt 0.288679 0.872574
vt 0.243762 0.264709
vt 0.724082 2.161940
vt 0.535022 1.816250
vt 0.541764 2.014540
vt -0.071051 0.745181
vt 0.006502 0.527356
vt 0.488878 0.296096
vt 0.479733 0.905549
vt 0.056613 0.827591
vt -0.018887 0.317822
vt 0.688947 2.117450
vt 0.185631 1.967250
vt 0.330699 2.015780
vt 0.205439 2.078790
vt 0.225530 2.101890
vt 0.419943 2.250320
vt 0.522508 2.205300
vt 0.375596 1.906700
vt 0.413308 1.840670
vt 0.782563 1.861260
vt 0.664838 1.845780
vt 0.669237 1.633760
vt 0.809689 1.631180
vt -0.144778 -0.381890
vt -0.366959 -0.426617
vt -0.108183 -0.737345
vt -0.145435 -1.742050
vt 0.330624 -1.697700
vt -0.073570 0.600386
vt 0.273797 0.465160
vt 0.181539 0.682057
vt -0.166432 0.097300
vt -0.405002 0.085756
vt 0.318966 -0.591076
vt 0.463891 -1.160750
vt -0.531788 0.354460
vt -0.609057 -0.412376
vt -0.655567 -0.362209
vt -0.279382 -0.228125
vt -0.463415 0.152964
vt 0.033644 -0.143483
vt -0.317471 -0.333779
vt 0.682018 0.469284
vt 0.685136 -0.059340
vt 0.132252 0.765375
vt 0.095097 -0.213549
vt -0.272194 -1.319720
vt 0.254229 -0.138993
vt 0.459976 0.042372
vt 0.166531 0.224290
vt 0.703155 0.323207
vt 0.708266 -0.101331
vt 0.316348 -1.879810
vt -0.131976 0.129215
vt -0.062977 -0.024785
vt 0.046333 0.154638
vt -0.302912 0.043577
vt -0.452021 -0.100430
vt -0.281113 -0.114075
vt 0.397752 0.152549
vt 0.353061 -0.026912
vt 0.045683 -0.098894
vt -0.124153 -0.267267
vt -0.083761 -0.525131
vt 0.147173 -0.344718
vt -0.255689 0.501552
vt -0.236385 0.264788
vt 0.423496 0.150314
vt -0.364136 0.013282
vt -0.342478 0.364537
vt 0.224941 0.164839
vt 0.144190 -0.031917
vt -0.127401 0.669186
vt -0.188895 0.837767
s 1
usemtl gray
f 51/1/1 50/2/1 48/3/2 49/4/3
f 26/5/4 25/6/5 24/7/6 23/8/7
f 5/9/8 6/10/9 7/11/10
f 7/12/11 8/13/12 9/14/13
f 10/15/14 9/16/13 8/17/12
f 9/16/13 10/15/14 11/18/15
f 12/19/16 11/18/15 10/15/14
f 11/20/15 12/21/16 13/22/17
f 14/23/18 13/22/18 12/21/18
f 13/24/19 14/25/20 15/26/20
f 16/27/21 15/26/20 14/25/20
f 15/28/22 16/29/22 17/30/22
f 18/31/23 17/30/24 16/29/25
f 18/32/26 20/33/26 19/34/26
f 20/35/27 18/36/27 21/37/27
f 16/38/25 21/37/28 18/36/23
f 14/25/29 21/39/29 16/27/29
f 15/40/30 88/41/31 87/42/32 13/43/33
f 12/44/16 10/45/14 22/46/34
f 23/47/35 22/46/34 10/45/14
f 115/48/36 112/49/37 111/50/38 113/51/39
f 103/52/40 93/53/41 62/54/42 95/55/43
f 3/56/44 29/57/45 27/58/46 28/59/47
f 37/60/48 36/61/49 34/62/50 35/63/51
f 96/64/52 95/65/43 62/66/42 63/67/53
f 80/68/54 79/69/55 77/70/56 76/71/57
f 43/72/58 41/73/59 68/74/59 70/75/60
f 38/76/61 41/77/61 42/78/61
f 43/79/62 42/78/63 41/77/64
f 42/80/63 43/81/62 44/82/65
f 44/83/66 45/84/66 46/85/66
f 47/86/67 46/85/68 45/84/69
f 47/87/70 58/88/71 57/89/72 49/90/73
f 75/91/74 74/92/75 72/93/76 73/94/77
f 56/95/78 91/96/79 55/97/80 53/98/80
f 57/99/72 92/100/81 56/101/82 51/102/83
f 53/103/84 55/104/84 54/105/84
f 17/106/85 89/107/85 88/108/85 15/109/85
f 51/102/83 56/101/82 53/110/86
f 116/111/87 110/112/88 111/113/38 112/114/37
f 49/115/73 57/99/72 51/102/83
f 66/116/89 64/117/90 70/118/91 68/119/92
f 81/120/93 2/121/93 1/122/93 4/123/93
f 116/111/94 112/114/95 44/124/96 46/125/94
f 61/126/97 62/54/42 60/127/98
f 62/66/42 61/128/97 63/67/53
f 60/129/99 94/130/100 57/131/72 58/132/101
f 55/97/102 91/96/102 90/133/102 89/134/102
f 39/135/103 38/136/104 36/137/105 37/138/103
f 46/139/106 48/140/107 118/141/106 116/142/108
f 29/57/45 32/143/109 114/144/110 27/58/46
f 6/145/111 1/146/112 3/147/113 28/148/114
f 104/149/115 95/150/116 96/151/117 97/152/118
f 115/153/119 113/154/120 34/155/50 36/137/49
f 59/156/121 70/157/91 64/158/90 61/159/122
f 30/160/123 3/161/113 1/122/112 2/121/124
f 36/137/105 38/136/104 42/162/125 115/153/126
f 53/110/127 52/163/128 50/164/129 51/102/129
f 9/14/130 84/165/131 7/12/132
f 84/165/131 9/14/130 85/166/133
f 105/167/134 106/168/135 120/169/136 52/170/134
f 107/171/137 22/172/138 23/173/7 24/7/6
f 11/18/139 86/174/140 85/175/133 9/16/130
f 13/176/33 87/177/32 86/178/140 11/179/139
f 12/44/16 22/46/34 21/180/141 14/181/142
f 92/182/143 91/96/79 56/95/78
f 94/183/100 92/184/81 57/185/72
f 72/186/76 74/187/75 97/188/118 96/189/117
f 93/53/41 60/127/144 62/54/42
f 106/168/135 108/190/145 117/191/146 120/169/136
f 78/192/147 82/193/148 98/194/149 97/195/150
f 68/196/92 69/197/151 67/198/152 66/199/89
f 63/200/153 65/201/154 72/186/155 96/189/156
f 42/202/157 44/203/96 112/204/95 115/205/158
f 97/195/150 74/206/159 78/192/147
f 82/207/160 78/208/161 77/70/56 79/209/55
f 98/210/162 83/211/162 99/212/162
f 84/213/163 99/212/163 83/211/163
f 85/214/164 99/212/164 84/213/164
f 101/215/165 87/216/165 88/217/165 90/218/165
f 6/145/9 5/219/8 4/220/166 1/146/166
f 71/221/167 65/222/154 66/223/168 67/224/169
f 89/134/170 90/133/170 88/225/170
f 73/94/171 72/93/155 65/226/154 71/227/167
f 34/228/50 113/229/120 114/144/110 32/230/109
f 102/231/172 104/232/173 99/233/174
f 98/234/149 99/233/174 104/232/173
f 104/149/173 97/152/150 98/235/149
f 19/34/175 105/236/175 52/237/175
f 105/236/176 19/34/176 20/33/176
f 105/236/177 20/33/178 106/238/179
f 31/239/180 29/240/45 3/241/44 30/242/181
f 24/243/6 108/244/182 107/245/137
f 28/246/47 27/247/46 25/248/5 26/5/4
f 7/11/183 83/249/184 82/250/185 5/9/186
f 118/141/187 117/251/187 110/252/187 116/142/187
f 19/34/188 52/237/128 53/253/127 54/254/188
f 86/178/189 100/255/190 99/256/191 85/257/192
f 104/258/115 102/259/193 103/52/193 95/55/116
f 61/126/122 60/260/194 58/261/194 59/262/121
f 4/263/195 79/264/196 80/265/197 81/266/198
f 107/267/137 108/268/182 106/269/179 20/270/178
f 54/271/199 55/272/199 89/107/199 17/106/199
f 118/141/200 119/273/201 117/251/146
f 118/274/202 48/275/203 119/276/204
f 35/63/205 34/62/50 32/277/109 33/278/206
f 50/279/207 119/276/204 48/275/203
f 110/280/208 117/281/146 108/282/145 109/283/209
f 33/284/210 32/285/109 29/286/45 31/287/180
f 120/169/136 117/191/146 119/288/201
f 22/289/138 107/290/137 21/291/211
f 20/270/178 21/292/211 107/267/137
f 54/293/212 17/30/212 18/31/212 19/294/212
f 101/295/213 100/296/190 86/178/189 87/177/213
f 49/297/3 48/298/2 46/299/68 47/300/67
usemtl green
f 8/301/214 7/302/215 6/303/111
f 41/73/216 40/304/217 69/305/218 68/74/219
f 109/306/209 114/144/110 111/307/220 110/308/208
f 59/309/221 58/88/71 47/87/70 45/310/222
f 5/311/186 82/207/185 79/209/196 4/312/195
f 45/310/222 44/313/223 43/314/58
f 64/315/224 63/316/224 61/317/224
f 63/318/153 64/319/225 65/222/154
f 66/223/168 65/222/154 64/319/226
f 41/73/216 38/320/227 39/321/227 40/304/217
f 45/310/222 43/322/58 70/157/60 59/309/221
f 8/301/214 6/145/111 28/148/114 26/323/228
f 77/70/56 78/208/161 74/324/229
f 83/325/230 7/326/230 84/327/230
f 77/70/56 74/328/229 75/329/231 76/330/57
f 92/331/232 93/332/233 91/333/234
f 93/332/233 92/331/232 94/334/235
f 94/334/235 60/335/236 93/332/233
f 83/249/184 98/336/237 82/250/185
f 101/337/238 102/338/239 100/255/190
f 23/339/240 10/340/241 8/341/214 26/342/228
f 99/256/191 100/255/190 102/338/239
f 24/343/242 25/344/243 108/282/145
f 109/283/209 108/282/145 25/344/243
f 113/345/120 111/307/220 114/144/110
f 114/144/110 109/306/209 27/346/46
f 25/347/243 27/346/46 109/306/209
f 90/348/244 91/333/234 93/332/233 103/349/245
f 119/350/246 50/164/247 120/351/248
f 52/163/249 120/351/248 50/164/247
f 103/349/245 102/338/239 101/337/238 90/348/244
